<svg xmlns="http://www.w3.org/2000/svg" xmlns:xlink="http://www.w3.org/1999/xlink" width="500" zoomAndPan="magnify" viewBox="0 0 375 374.999991" height="500" preserveAspectRatio="xMidYMid meet" version="1.0"><defs><clipPath id="cb68fd1ba6"><path d="M 63 182 L 325 182 L 325 349.730469 L 63 349.730469 Z M 63 182 " clip-rule="nonzero"/></clipPath><clipPath id="76df983474"><path d="M 48.140625 99.980469 L 48.140625 275.019531 C 48.140625 316.4375 81.71875 350.019531 123.140625 350.019531 L 251.859375 350.019531 C 293.28125 350.019531 326.859375 316.4375 326.859375 275.019531 L 326.859375 99.980469 C 326.859375 58.5625 293.28125 24.980469 251.859375 24.980469 L 123.140625 24.980469 C 81.71875 24.980469 48.140625 58.5625 48.140625 99.980469 Z M 48.140625 99.980469 " clip-rule="nonzero"/></clipPath><clipPath id="9df5261490"><path d="M 48.140625 25 L 326 25 L 326 283 L 48.140625 283 Z M 48.140625 25 " clip-rule="nonzero"/></clipPath><clipPath id="a1d9f0a14a"><path d="M 48.140625 99.980469 L 48.140625 275.019531 C 48.140625 316.4375 81.71875 350.019531 123.140625 350.019531 L 251.859375 350.019531 C 293.28125 350.019531 326.859375 316.4375 326.859375 275.019531 L 326.859375 99.980469 C 326.859375 58.5625 293.28125 24.980469 251.859375 24.980469 L 123.140625 24.980469 C 81.71875 24.980469 48.140625 58.5625 48.140625 99.980469 Z M 48.140625 99.980469 " clip-rule="nonzero"/></clipPath><clipPath id="56ae254326"><path d="M 48.140625 24.980469 L 327 24.980469 L 327 298 L 48.140625 298 Z M 48.140625 24.980469 " clip-rule="nonzero"/></clipPath><clipPath id="37962f29ac"><path d="M 48.140625 99.980469 L 48.140625 275.019531 C 48.140625 316.4375 81.71875 350.019531 123.140625 350.019531 L 251.859375 350.019531 C 293.28125 350.019531 326.859375 316.4375 326.859375 275.019531 L 326.859375 99.980469 C 326.859375 58.5625 293.28125 24.980469 251.859375 24.980469 L 123.140625 24.980469 C 81.71875 24.980469 48.140625 58.5625 48.140625 99.980469 Z M 48.140625 99.980469 " clip-rule="nonzero"/></clipPath><clipPath id="fe636ca6e2"><path d="M 48.140625 25 L 326 25 L 326 183 L 48.140625 183 Z M 48.140625 25 " clip-rule="nonzero"/></clipPath><clipPath id="44b6592404"><path d="M 48.140625 99.980469 L 48.140625 275.019531 C 48.140625 316.4375 81.71875 350.019531 123.140625 350.019531 L 251.859375 350.019531 C 293.28125 350.019531 326.859375 316.4375 326.859375 275.019531 L 326.859375 99.980469 C 326.859375 58.5625 293.28125 24.980469 251.859375 24.980469 L 123.140625 24.980469 C 81.71875 24.980469 48.140625 58.5625 48.140625 99.980469 Z M 48.140625 99.980469 " clip-rule="nonzero"/></clipPath></defs><g clip-path="url(#cb68fd1ba6)"><g clip-path="url(#76df983474)"><path fill="#006633" d="M 81.730469 282.957031 C 76.296875 277.972656 63.921875 265.640625 63.921875 258.011719 C 63.921875 249.019531 64.1875 196.007812 71.476562 191.105469 L 75.628906 188.808594 L 191.289062 182.371094 L 324.839844 256.441406 L 182.796875 350.023438 L 88.652344 287.550781 Z M 81.730469 282.957031 " fill-opacity="1" fill-rule="evenodd"/></g></g><g clip-path="url(#9df5261490)"><g clip-path="url(#a1d9f0a14a)"><path fill="#2fac66" d="M 191.289062 182.382812 L 89.019531 238.773438 C 87.554688 239.421875 86.160156 240.191406 84.859375 241.0625 C 77.570312 245.972656 73.066406 254.246094 73.066406 263.238281 C 73.066406 270.867188 76.308594 277.972656 81.730469 282.945312 L 75.640625 278.90625 C 60.515625 267.648438 50.652344 250.503906 48.675781 231.527344 L 48.675781 103.019531 L 182.796875 25.578125 L 325.78125 108.230469 Z M 191.289062 182.382812 " fill-opacity="1" fill-rule="evenodd"/></g></g><g clip-path="url(#56ae254326)"><g clip-path="url(#37962f29ac)"><path stroke-linecap="butt" transform="matrix(1.025335, 0, 0, 1.025335, 48.151528, 24.982277)" fill="none" stroke-linejoin="miter" d="M 139.600728 153.511303 L 39.85819 208.508564 C 38.429541 209.140979 37.069468 209.891495 35.800828 210.741065 C 28.691872 215.529896 24.299253 223.598904 24.299253 232.368902 C 24.299253 239.809304 27.461329 246.739203 32.749234 251.588989 L 26.809865 247.649728 C 12.058591 236.670087 2.439023 219.949182 0.5113 201.441515 L 0.5113 76.10902 L 131.318376 0.581125 L 270.769729 81.1912 Z M 139.600728 153.511303 " stroke="#2fac66" stroke-width="1" stroke-opacity="1" stroke-miterlimit="10"/></g></g><g clip-path="url(#fe636ca6e2)"><g clip-path="url(#44b6592404)"><path fill="#00ed64" d="M 191.289062 182.382812 L 48.664062 103.277344 L 48.664062 103.019531 L 182.796875 25.578125 L 325.78125 108.230469 Z M 191.289062 182.382812 " fill-opacity="1" fill-rule="evenodd"/></g></g></svg>